HIERARCHY
ROOT hip
{
  OFFSET 0 0 0
  CHANNELS 6 Xposition Yposition Zposition Zrotation Yrotation Xrotation
  JOINT abdomen
  {
    OFFSET 0 20.6881 -0.73152
    CHANNELS 3 Zrotation Xrotation Yrotation
    JOINT chest
    {
      OFFSET 0 11.7043 -0.48768
      CHANNELS 3 Zrotation Xrotation Yrotation
      JOINT neck
      {
        OFFSET 0 22.1894 -2.19456
        CHANNELS 3 Zrotation Xrotation Yrotation
        JOINT head
        {
          OFFSET -0.24384 7.07133 1.2192
          CHANNELS 3 Zrotation Xrotation Yrotation
          JOINT leftEye
          {
            OFFSET 4.14528 8.04674 8.04672
            CHANNELS 3 Zrotation Xrotation Yrotation
            End Site
            {
              OFFSET 1 0 0
            }
          }
          JOINT rightEye
          {
            OFFSET -3.6576 8.04674 8.04672
            CHANNELS 3 Zrotation Xrotation Yrotation
            End Site
            {
              OFFSET 1 0 0
            }
          }
        }
      }
      JOINT rCollar
      {
        OFFSET -2.68224 19.2634 -4.8768
        CHANNELS 3 Zrotation Xrotation Yrotation
        JOINT rShldr
        {
          OFFSET -8.77824 -1.95073 1.46304
          CHANNELS 3 Zrotation Xrotation Yrotation
          JOINT rForeArm
          {
            OFFSET -28.1742 -1.7115 0.48768
            CHANNELS 3 Zrotation Xrotation Yrotation
            JOINT rHand
            {
              OFFSET -22.5879 0.773209 7.07136
              CHANNELS 3 Zrotation Xrotation Yrotation
              JOINT rThumb1
              {
                OFFSET -1.2192 -0.487915 3.41376
                CHANNELS 3 Zrotation Xrotation Yrotation
                JOINT rThumb2
                {
                  OFFSET -3.37035 -0.52449 3.41376
                  CHANNELS 3 Zrotation Xrotation Yrotation
                  End Site
                  {
                    OFFSET -1.78271 -1.18214 1.43049
                  }
                }
              }
              JOINT rIndex1
              {
                OFFSET -7.75947 0.938293 5.60832
                CHANNELS 3 Zrotation Xrotation Yrotation
                JOINT rIndex2
                {
                  OFFSET -2.54057 -0.884171 1.56538
                  CHANNELS 3 Zrotation Xrotation Yrotation
                  End Site
                  {
                    OFFSET -1.62519 -0.234802 1.16502
                  }
                }
              }
              JOINT rMid1
              {
                OFFSET -8.24714 1.18213 3.41376
                CHANNELS 3 Zrotation Xrotation Yrotation
                JOINT rMid2
                {
                  OFFSET -3.10165 -0.590103 1.0647
                  CHANNELS 3 Zrotation Xrotation Yrotation
                  End Site
                  {
                    OFFSET -2.48547 -0.328903 0.83742
                  }
                }
              }
              JOINT rRing1
              {
                OFFSET -8.82822 0.546677 1.51678
                CHANNELS 3 Zrotation Xrotation Yrotation
                JOINT rRing2
                {
                  OFFSET -2.60934 -0.819778 -0.0198488
                  CHANNELS 3 Zrotation Xrotation Yrotation
                  End Site
                  {
                    OFFSET -2.33842 -0.294052 0.168128
                  }
                }
              }
              JOINT rPinky1
              {
                OFFSET -8.27202 -0.0477905 -0.4584
                CHANNELS 3 Zrotation Xrotation Yrotation
                JOINT rPinky2
                {
                  OFFSET -1.82734 -0.647385 -0.700984
                  CHANNELS 3 Zrotation Xrotation Yrotation
                  End Site
                  {
                    OFFSET -1.69225 -0.51767 -0.607171
                  }
                }
              }
            }
          }
        }
      }
      JOINT lCollar
      {
        OFFSET 2.68224 19.2634 -4.8768
        CHANNELS 3 Zrotation Xrotation Yrotation
        JOINT lShldr
        {
          OFFSET 8.77824 -1.95073 1.46304
          CHANNELS 3 Zrotation Xrotation Yrotation
          JOINT lForeArm
          {
            OFFSET 28.1742 -1.7115 0.48768
            CHANNELS 3 Zrotation Xrotation Yrotation
            JOINT lHand
            {
              OFFSET 22.5879 0.773209 7.07136
              CHANNELS 3 Zrotation Xrotation Yrotation
              JOINT lThumb1
              {
                OFFSET 1.2192 -0.487915 3.41376
                CHANNELS 3 Zrotation Xrotation Yrotation
                JOINT lThumb2
                {
                  OFFSET 3.37035 -0.52449 3.41376
                  CHANNELS 3 Zrotation Xrotation Yrotation
                  End Site
                  {
                    OFFSET 1.78271 -1.18214 1.43049
                  }
                }
              }
              JOINT lIndex1
              {
                OFFSET 7.75947 0.938293 5.60832
                CHANNELS 3 Zrotation Xrotation Yrotation
                JOINT lIndex2
                {
                  OFFSET 2.54057 -0.884171 1.56538
                  CHANNELS 3 Zrotation Xrotation Yrotation
                  End Site
                  {
                    OFFSET 1.62519 -0.234802 1.16502
                  }
                }
              }
              JOINT lMid1
              {
                OFFSET 8.24714 1.18213 3.41376
                CHANNELS 3 Zrotation Xrotation Yrotation
                JOINT lMid2
                {
                  OFFSET 3.10165 -0.590103 1.0647
                  CHANNELS 3 Zrotation Xrotation Yrotation
                  End Site
                  {
                    OFFSET 2.48547 -0.328903 0.83742
                  }
                }
              }
              JOINT lRing1
              {
                OFFSET 8.82822 0.546677 1.51678
                CHANNELS 3 Zrotation Xrotation Yrotation
                JOINT lRing2
                {
                  OFFSET 2.60934 -0.819778 -0.0198488
                  CHANNELS 3 Zrotation Xrotation Yrotation
                  End Site
                  {
                    OFFSET 2.33842 -0.294052 0.168128
                  }
                }
              }
              JOINT lPinky1
              {
                OFFSET 8.27202 -0.0477905 -0.4584
                CHANNELS 3 Zrotation Xrotation Yrotation
                JOINT lPinky2
                {
                  OFFSET 1.82734 -0.647385 -0.700984
                  CHANNELS 3 Zrotation Xrotation Yrotation
                  End Site
                  {
                    OFFSET 1.69225 -0.51767 -0.607171
                  }
                }
              }
            }
          }
        }
      }
    }
  }
  JOINT rButtock
  {
    OFFSET -8.77824 4.35084 1.2192
    CHANNELS 3 Zrotation Xrotation Yrotation
    JOINT rThigh
    {
      OFFSET 0 -1.70687 -2.19456
      CHANNELS 3 Zrotation Xrotation Yrotation
      JOINT rShin
      {
        OFFSET 0 -36.8199 0.73152
        CHANNELS 3 Zrotation Xrotation Yrotation
        JOINT rFoot
        {
          OFFSET 0.73152 -45.1104 -5.12064
          CHANNELS 3 Zrotation Xrotation Yrotation
          End Site
          {
            OFFSET -1.1221 -3.69964 12.103
          }
        }
      }
    }
  }
  JOINT lButtock
  {
    OFFSET 8.77824 4.35084 1.2192
    CHANNELS 3 Zrotation Xrotation Yrotation
    JOINT lThigh
    {
      OFFSET 0 -1.70687 -2.19456
      CHANNELS 3 Zrotation Xrotation Yrotation
      JOINT lShin
      {
        OFFSET 0 -36.8199 0.73152
        CHANNELS 3 Zrotation Xrotation Yrotation
        JOINT lFoot
        {
          OFFSET -0.73152 -45.1104 -5.12064
          CHANNELS 3 Zrotation Xrotation Yrotation
          End Site
          {
            OFFSET 1.1221 -3.69964 12.103
          }
        }
      }
    }
  }
}
MOTION
Frames:	8
Frame Time:	0.00833333
277.716 84.8928 -0.223497 0.0 0.0 0.0 -0.180148 -0.000587416 -0.00513799 -0.0496822 -0.000860797 -0.00860669 2.86716e-15 -1.59028e-15 1.86361e-17 8.65335e-15 -6.36111e-15 5.59082e-17 -0.0 0.0 0.0 -0.0 0.0 0.0 1.48961e-15 0.0 2.48481e-16 3.17912e-14 -2.79541e-16 7.95139e-16 5.22903e-13 -1.59028e-13 9.54166e-15 5.98351e-12 1.43647e-13 3.18055e-14 1.41129e-11 -3.01596e-14 9.85972e-14 2.43607e-11 -5.08889e-14 1.63003e-13 1.41213e-11 -2.82274e-14 9.22361e-14 7.73091 5.47488 0.417314 1.41142e-11 -2.94201e-14 9.85972e-14 2.90554 0.965183 0.102902 1.41275e-11 -2.93207e-14 9.93923e-14 10.2786 0.731801 0.0259123 1.41083e-11 -2.78299e-14 1.11319e-13 2.22167 -0.733487 -0.20892 1.39286e-15 1.94126e-19 -2.48481e-16 2.82584e-14 -3.66509e-16 -1.98785e-16 5.1848e-13 1.5545e-13 0.0 5.98807e-12 -1.63302e-13 6.04305e-14 1.41186e-11 -1.13507e-14 1.01778e-13 2.43841e-11 -1.59028e-14 1.82882e-13 1.41133e-11 -9.1441e-15 1.11319e-13 -7.73091 5.47488 -0.417314 1.41183e-11 -1.09332e-14 1.01778e-13 -2.90554 0.965183 -0.102902 1.41131e-11 -1.09332e-14 1.02573e-13 -10.2786 0.731801 -0.0259123 1.41205e-11 -9.1441e-15 9.85972e-14 -2.22167 -0.733487 0.20892 -2.03217e-16 0.0 -3.88251e-19 0.373561 -2.84391 -0.0347137 -0.00664978 -0.401534 -0.0584289 -0.509711 3.24465 0.124534 2.03217e-16 0.0 3.88251e-19 -0.647778 -3.54407 0.0518675 0.00461062 0.866742 0.0396101 0.511846 2.67657 -0.113179
276.015 82.7764 -5.27731 -174.464 -75.5904 -169.241 -1.36267 -4.45727 0.75731 0.95136 1.18155 0.198166 -1.17777 5.80767 -0.356543 1.72586 -11.6359 -0.212615 -0.0 0.0 0.0 -0.0 0.0 0.0 7.47151e-15 7.04601e-14 7.23405e-14 22.9935 -0.85923 0.0228865 -2.72708 -1.04169 4.44984 0.122109 7.76517 1.05548 4.74125e-10 3.91957e-10 -6.65935e-10 8.0388e-10 6.81388e-10 -1.1594e-09 4.74131e-10 3.91957e-10 -6.65939e-10 7.73091 5.47488 0.417314 4.74126e-10 3.91956e-10 -6.65937e-10 2.90554 0.965183 0.102902 4.74138e-10 3.91956e-10 -6.65935e-10 10.2786 0.731801 0.0259123 4.74122e-10 3.91957e-10 -6.65926e-10 2.22167 -0.733487 -0.20892 7.32445e-15 7.04599e-14 7.19127e-14 -23.5486 -4.4116 -0.272287 2.20322 -0.783587 -3.6413 -0.387552 13.8943 -1.75214 -7.09797e-10 3.18031e-10 5.13362e-10 -1.19887e-09 5.48829e-10 9.11902e-10 -7.098e-10 3.18034e-10 5.13372e-10 -7.73091 5.47488 -0.417314 -7.09794e-10 3.18031e-10 5.1336e-10 -2.90554 0.965183 -0.102902 -7.09804e-10 3.18033e-10 5.13363e-10 -10.2786 0.731801 -0.0259123 -7.09797e-10 3.18034e-10 5.13357e-10 -2.22167 -0.733487 0.20892 -2.03217e-16 0.0 -3.88251e-19 0.621315 -8.57763 0.897877 0.00526959 6.71417 0.0635793 -0.806132 0.884477 -4.46025 2.03217e-16 0.0 3.88251e-19 0.765152 -11.0017 -3.50852 -0.0202655 8.78943 -0.116185 0.962089 -1.58265 4.06573
275.953 82.7901 -5.43692 -174.339 -75.5032 -169.643 -2.48402 -9.16404 1.57678 2.00219 2.43197 0.416451 -2.34074 11.9421 -0.747089 3.44716 -23.9369 -0.471165 -0.0 0.0 0.0 -0.0 0.0 0.0 1.56755e-14 1.32735e-13 1.52232e-13 47.3043 -1.76201 0.0506532 -5.43578 -2.12258 9.1605 -0.0711008 15.955 2.23629 9.87239e-10 8.41215e-10 -1.432e-09 1.67286e-09 1.46209e-09 -2.49271e-09 9.87243e-10 8.41214e-10 -1.432e-09 7.73091 5.47488 0.417314 9.87241e-10 8.41214e-10 -1.432e-09 2.90554 0.965183 0.102902 9.8725e-10 8.41213e-10 -1.432e-09 10.2786 0.731801 0.0259123 9.87238e-10 8.41213e-10 -1.43199e-09 2.22167 -0.733487 -0.20892 1.54726e-14 1.32735e-13 1.51878e-13 -48.4849 -9.01061 -0.582781 4.43023 -1.60426 -7.50278 0.241679 28.4807 -3.97601 -1.53657e-09 6.7766e-10 1.08499e-09 -2.59648e-09 1.16962e-09 1.92818e-09 -1.53657e-09 6.77665e-10 1.085e-09 -7.73091 5.47488 -0.417314 -1.53656e-09 6.7766e-10 1.08499e-09 -2.90554 0.965183 -0.102902 -1.53658e-09 6.77665e-10 1.08499e-09 -10.2786 0.731801 -0.0259123 -1.53657e-09 6.77664e-10 1.08499e-09 -2.22167 -0.733487 0.20892 -2.03217e-16 0.0 -3.88251e-19 1.08457 -14.6398 1.91793 -0.0159494 14.2452 0.197796 -1.52728 -1.58059 -9.30195 2.03217e-16 0.0 3.88251e-19 1.19442 -18.7748 -7.54203 0.00217325 17.1649 -0.291065 2.11385 -6.02802 8.52548
276.053 82.7888 -5.57376 -174.292 -75.5705 -169.536 -3.36356 -13.361 2.33867 2.9278 3.5462 0.612757 -3.3076 17.4203 -1.1153 4.87031 -34.9056 -0.761792 -0.0 0.0 0.0 -0.0 0.0 0.0 1.94353e-14 2.1138e-13 2.16525e-13 68.9827 -2.57769 0.0687214 -7.70014 -3.04976 13.3666 -0.556012 23.2624 3.41534 1.39415e-09 1.17593e-09 -1.998e-09 2.36292e-09 2.04426e-09 -3.47852e-09 1.39415e-09 1.17593e-09 -1.998e-09 7.73091 5.47488 0.417314 1.39415e-09 1.17593e-09 -1.99801e-09 2.90554 0.965183 0.102902 1.39416e-09 1.17593e-09 -1.998e-09 10.2786 0.731801 0.0259123 1.39415e-09 1.17593e-09 -1.998e-09 2.22167 -0.733487 -0.20892 1.91876e-14 2.11379e-13 2.16235e-13 -70.7746 -13.2336 -0.836661 6.31268 -2.31282 -10.9319 2.10576 41.4997 -6.81999 -2.15763e-09 9.54116e-10 1.53988e-09 -3.64539e-09 1.64652e-09 2.73534e-09 -2.15763e-09 9.54122e-10 1.53989e-09 -7.73091 5.47488 -0.417314 -2.15762e-09 9.54115e-10 1.53988e-09 -2.90554 0.965183 -0.102902 -2.15764e-09 9.54122e-10 1.53988e-09 -10.2786 0.731801 -0.0259123 -2.15763e-09 9.54121e-10 1.53988e-09 -2.22167 -0.733487 0.20892 -2.03217e-16 0.0 -3.88251e-19 1.70839 -20.0244 2.90883 -0.0666477 20.9453 0.327956 -2.5232 -3.71991 -13.6572 2.03217e-16 0.0 3.88251e-19 0.56505 -25.5166 -11.5781 0.0698054 24.6341 -0.466094 3.73235 -9.87405 12.6084
276.165 82.7915 -5.69561 -174.526 -75.8803 -169.279 -3.89673 -16.2926 2.90336 3.55837 4.32012 0.753122 -3.94752 21.2606 -1.38412 5.78335 -42.5456 -1.01542 -0.0 0.0 0.0 -0.0 0.0 0.0 1.20848e-14 3.30951e-13 2.41822e-13 84.078 -3.17561 0.0624635 -9.19207 -3.66463 16.2948 -1.10284 28.395 4.3572 1.53554e-09 1.22429e-09 -2.06386e-09 2.60569e-09 2.13015e-09 -3.59555e-09 1.53554e-09 1.22429e-09 -2.06386e-09 7.73091 5.47488 0.417314 1.53555e-09 1.22429e-09 -2.06386e-09 2.90554 0.965183 0.102902 1.53555e-09 1.22428e-09 -2.06386e-09 10.2786 0.731801 0.0259123 1.53554e-09 1.22428e-09 -2.06386e-09 2.22167 -0.733487 -0.20892 1.18198e-14 3.3095e-13 2.41573e-13 -86.3456 -16.518 -0.928481 7.54548 -2.77801 -13.2722 4.70873 50.7563 -9.90715 -2.2644e-09 1.02264e-09 1.70293e-09 -3.82253e-09 1.76368e-09 3.01973e-09 -2.2644e-09 1.02264e-09 1.70294e-09 -7.73091 5.47488 -0.417314 -2.26439e-09 1.02264e-09 1.70292e-09 -2.90554 0.965183 -0.102902 -2.26441e-09 1.02264e-09 1.70293e-09 -10.2786 0.731801 -0.0259123 -2.26441e-09 1.02264e-09 1.70292e-09 -2.22167 -0.733487 0.20892 -2.03217e-16 0.0 -3.88251e-19 2.31219 -23.7338 3.69655 -0.121538 25.5684 0.427745 -3.42121 -5.16961 -16.7544 2.03217e-16 0.0 3.88251e-19 -0.494313 -30.0511 -14.7577 0.148308 29.8388 -0.605211 5.1959 -12.4488 15.5509
276.134 82.7961 -5.83721 -174.401 -75.7446 -169.445 -4.06324 -17.4559 3.14656 3.78235 4.61837 0.812537 -4.22578 22.8137 -1.4732 6.16335 -45.5311 -1.07929 -0.0 0.0 0.0 -0.0 0.0 0.0 -1.9489e-14 5.90007e-13 2.07307e-13 89.9497 -3.47083 0.021635 -9.74501 -3.89 17.4171 -1.38364 30.5277 4.78434 1.26385e-09 7.75154e-10 -1.25543e-09 2.15472e-09 1.35481e-09 -2.19521e-09 1.26385e-09 7.75152e-10 -1.25543e-09 7.73091 5.47488 0.417314 1.26385e-09 7.75152e-10 -1.25543e-09 2.90554 0.965183 0.102902 1.26385e-09 7.75151e-10 -1.25543e-09 10.2786 0.731801 0.0259123 1.26385e-09 7.7515e-10 -1.25543e-09 2.22167 -0.733487 -0.20892 -1.97284e-14 5.90007e-13 2.07065e-13 -92.4639 -18.5195 -0.775333 7.95773 -2.92649 -14.0785 6.42027 54.9345 -11.8044 -1.49296e-09 7.50244e-10 1.4223e-09 -2.50877e-09 1.29023e-09 2.50537e-09 -1.49296e-09 7.50249e-10 1.42232e-09 -7.73091 5.47488 -0.417314 -1.49295e-09 7.50242e-10 1.4223e-09 -2.90554 0.965183 -0.102902 -1.49297e-09 7.50248e-10 1.42231e-09 -10.2786 0.731801 -0.0259123 -1.49296e-09 7.50248e-10 1.4223e-09 -2.22167 -0.733487 0.20892 -2.03217e-16 0.0 -3.88251e-19 2.67808 -25.108 4.10471 -0.146745 27.2827 0.46861 -3.84137 -5.7569 -18.0529 2.03217e-16 0.0 3.88251e-19 -1.00406 -31.7748 -16.1118 0.187043 31.8753 -0.664362 5.84814 -13.41 16.7501
276.111 82.7997 -5.95401 -174.225 -75.7231 -169.632 -3.99878 -17.3584 3.14841 3.71791 4.57688 0.814016 -4.26473 22.7336 -1.42432 6.20985 -45.1925 -0.968298 -0.0 0.0 0.0 -0.0 0.0 0.0 -6.79523e-14 9.44783e-13 1.30319e-13 89.2334 -3.54974 -0.0438734 -9.65998 -3.85137 17.2469 -1.3743 30.5247 4.78063 6.99055e-10 -2.47319e-11 1.69194e-10 1.21143e-09 -2.77791e-11 2.74629e-10 6.99056e-10 -2.47329e-11 1.69191e-10 7.73091 5.47488 0.417314 6.99055e-10 -2.4733e-11 1.6919e-10 2.90554 0.965183 0.102902 6.99061e-10 -2.47338e-11 1.69194e-10 10.2786 0.731801 0.0259123 6.99055e-10 -2.47338e-11 1.69198e-10 2.22167 -0.733487 -0.20892 -6.81358e-14 9.44782e-13 1.30058e-13 -91.8139 -19.6029 -0.441093 7.80301 -2.85541 -13.788 6.62069 55.5685 -12.0685 -1.01763e-10 2.36712e-10 8.26445e-10 -1.42943e-10 3.99066e-10 1.42365e-09 -1.0177e-10 2.36714e-10 8.2646e-10 -7.73091 5.47488 -0.417314 -1.01759e-10 2.36708e-10 8.26443e-10 -2.90554 0.965183 -0.102902 -1.01769e-10 2.36712e-10 8.26447e-10 -10.2786 0.731801 -0.0259123 -1.01761e-10 2.36713e-10 8.26439e-10 -2.22167 -0.733487 0.20892 -2.03217e-16 0.0 -3.88251e-19 2.81568 -24.8191 4.21154 -0.141579 26.9194 0.46222 -3.83931 -5.75882 -18.0547 2.03217e-16 0.0 3.88251e-19 -0.818024 -31.579 -15.9728 0.182225 31.649 -0.656681 5.78116 -13.2698 16.6606
276.237 82.7997 -6.08929 -174.167 -75.9019 -169.586 -3.84825 -16.7617 3.06387 3.54067 4.39845 0.79541 -4.18121 21.9939 -1.33313 6.07903 -43.5177 -0.830406 -0.0 0.0 0.0 -0.0 0.0 0.0 -1.09301e-13 1.20634e-12 4.46881e-14 85.8924 -3.53865 -0.118512 -9.32454 -3.70997 16.5701 -1.24153 29.6346 4.5955 8.32207e-11 -8.10373e-10 1.56178e-09 1.79286e-10 -1.38699e-09 2.69051e-09 8.32234e-11 -8.10373e-10 1.56178e-09 7.73091 5.47488 0.417314 8.32207e-11 -8.10373e-10 1.56178e-09 2.90554 0.965183 0.102902 8.32265e-11 -8.10373e-10 1.56179e-09 10.2786 0.731801 0.0259123 8.32201e-11 -8.10372e-10 1.56179e-09 2.22167 -0.733487 -0.20892 -1.09424e-13 1.20634e-12 4.44024e-14 -88.4437 -20.27 -0.0359198 7.42328 -2.69787 -13.0665 6.09704 54.7683 -11.5655 1.2842e-09 -2.93583e-10 1.60628e-10 2.21099e-09 -5.20034e-10 2.21979e-10 1.28419e-09 -2.93584e-10 1.60643e-10 -7.73091 5.47488 -0.417314 1.2842e-09 -2.93589e-10 1.60629e-10 -2.90554 0.965183 -0.102902 1.2842e-09 -2.93588e-10 1.60629e-10 -10.2786 0.731801 -0.0259123 1.2842e-09 -2.93585e-10 1.60622e-10 -2.22167 -0.733487 0.20892 -2.03217e-16 0.0 -3.88251e-19 2.85561 -23.8709 4.19779 -0.124603 25.7271 0.437049 -3.66259 -5.52055 -17.5364 2.03217e-16 0.0 3.88251e-19 -0.356036 -30.6175 -15.2411 0.16012 30.5144 -0.622543 5.42657 -12.6941 16.0523
